<svg width="32" height="32" xmlns="http://www.w3.org/2000/svg" aria-hidden="true" viewBox="0 0 32 32">
<path fill-rule="evenodd" clip-rule="evenodd" d="M27.29 11.4L17.2 1.9C16.4889 1.36667 15.5111 1.36667 14.8 1.9L4.71 11.4C4.25934 11.7804 3.99952 12.3403 4 12.93V28C4 29.1046 4.89543 30 6 30H26C27.1046 30 28 29.1046 28 28V12.93C28.0005 12.3403 27.7407 11.7804 27.29 11.4ZM20.29 19L16 23.3L11.69 19C11.2443 18.5632 10.9953 17.964 11 17.34C10.9987 16.7166 11.2472 16.1188 11.69 15.68C12.6152 14.7742 14.0948 14.7742 15.02 15.68L16.02 16.68L17.02 15.68C17.943 14.7688 19.427 14.7688 20.35 15.68C20.7782 16.1253 21.012 16.7224 21 17.34C21.0047 17.964 20.7557 18.5632 20.31 19H20.29Z"></path>
</svg>