<svg width="32" height="32" xmlns="http://www.w3.org/2000/svg" aria-hidden="true" viewBox="0 0 32 32">
<path fill-rule="evenodd" clip-rule="evenodd" d="M27.29 11.4L17.2 1.9C16.4889 1.36667 15.5111 1.36667 14.8 1.9L4.71 11.4C4.25934 11.7804 3.99952 12.3403 4 12.93V28C4 29.1046 4.89543 30 6 30H26C27.1046 30 28 29.1046 28 28V12.93C28.0005 12.3403 27.7407 11.7804 27.29 11.4ZM6 28V12.93L16 3.52L26 12.93V28H20V20C20 18.8954 19.1046 18 18 18H14C12.8954 18 12 18.8954 12 20V28H6ZM14 28H18V20H14V28Z"></path>
</svg>