<svg width="32" height="32" xmlns="http://www.w3.org/2000/svg" aria-hidden="true" viewBox="0 0 32 32">
<path fill-rule="evenodd" clip-rule="evenodd" d="M21.9989 11.49C21.9933 11.0934 21.8358 10.714 21.5589 10.43C21.1824 10.0676 20.6461 9.92413 20.1389 10.05L9.13891 12.95C8.50762 13.1007 8.04651 13.6427 7.99891 14.29V14.39C7.99922 14.9964 8.36698 15.5421 8.92891 15.77L13.9989 18L16.2289 23.07C16.487 23.6265 17.0597 23.968 17.6719 23.9304C18.2842 23.8928 18.8109 23.4838 18.9989 22.9L21.8989 11.9C21.9302 11.7791 21.947 11.6549 21.9489 11.53L21.9989 11.49ZM19.7889 12.2L17.4889 21L15.8289 17.22L15.5189 16.51L14.8089 16.2L10.9989 14.51L19.7889 12.2Z"></path>
<path fill-rule="evenodd" clip-rule="evenodd" d="M25.8989 25.9C30.6219 21.1774 31.3513 13.7762 27.6409 8.22264C23.9306 2.66904 16.8139 0.509762 10.6431 3.06533C4.47239 5.6209 0.966171 12.1796 2.26874 18.7303C3.57132 25.2811 9.3199 29.9995 15.9989 30C19.7134 30.0069 23.2769 28.531 25.8989 25.9ZM7.50891 24.49C3.45873 20.4443 2.83024 14.1011 6.00775 9.33925C9.18526 4.57745 15.2839 2.72317 20.5742 4.91034C25.8646 7.09751 28.8733 12.717 27.7606 18.3325C26.6479 23.9479 21.7235 27.9955 15.9989 28C12.8154 28.0025 9.76127 26.7398 7.50891 24.49Z"></path>
</svg>