<svg width="32" height="32" xmlns="http://www.w3.org/2000/svg" aria-hidden="true" viewBox="0 0 32 32">
<path fill-rule="evenodd" clip-rule="evenodd" d="M11.3009 3.71017L23.5909 16.0002L11.3109 28.2902C10.9711 28.6869 10.9939 29.2784 11.3633 29.6477C11.7327 30.0171 12.3241 30.0399 12.7209 29.7002L25.7209 16.7002C25.9102 16.5124 26.0167 16.2568 26.0167 15.9902C26.0167 15.7235 25.9102 15.4679 25.7209 15.2802L12.7209 2.28017C12.5331 2.09086 12.2775 1.98438 12.0109 1.98438C11.7442 1.98437 11.4886 2.09086 11.3009 2.28017C11.1085 2.46831 11 2.72606 11 2.99517C11 3.26428 11.1085 3.52203 11.3009 3.71017Z"></path>
</svg>