<svg width="32" height="32" xmlns="http://www.w3.org/2000/svg" aria-hidden="true" viewBox="0 0 32 32">
<path fill-rule="evenodd" clip-rule="evenodd" d="M28.2305 11.3009L15.9405 23.5909L3.65046 11.3109C3.2537 10.9711 2.66227 10.9939 2.2929 11.3633C1.92353 11.7327 1.90068 12.3241 2.24046 12.7209L15.2405 25.7209C15.4282 25.9102 15.6838 26.0167 15.9505 26.0167C16.2171 26.0167 16.4727 25.9102 16.6605 25.7209L29.6605 12.7209C29.8498 12.5331 29.9563 12.2775 29.9563 12.0109C29.9563 11.7442 29.8498 11.4886 29.6605 11.3009C29.4723 11.1085 29.2146 11 28.9455 11C28.6764 11 28.4186 11.1085 28.2305 11.3009Z"></path>
</svg>