<svg width="32" height="32" xmlns="http://www.w3.org/2000/svg" fill="none" viewBox="0 0 32 32"><path fill="currentColor" fill-rule="evenodd" d="M16.389 6.693c1.289-.362 2.252-.129 3.37.01l.268.038c1.347.221 2.833.856 3.963 1.416a28 28 0 0 1 1.94 1.062h3.57l-.043 6.494-.004.704-.726.026-1.628.063-1.583 1.733.216.217c.516.5.753 1.122.811 1.67.053.5-.021 1.164-.44 1.704-.361.468-.95.794-1.494.943-.35.095-.832.151-1.333.037-.32.252-.9.7-1.296.96l-.177.11a2.2 2.2 0 0 1-2.006.135c-.174.17-.38.362-.588.518l-.177.125c-.392.253-.904.43-1.427.466-.422.03-1.004-.026-1.534-.358-.417.333-.89.577-1.418.68a2.77 2.77 0 0 1-1.905-.302l-.226-.142c-.294-.203-1.06-.847-1.797-1.474l-2.202-1.893-.143-.126-.109-.157c-.817-1.195-2.502-3.643-2.903-4.17a21 21 0 0 0-1.1-1.333 8 8 0 0 0-.619-.618c-.069-.06-.118-.094-.145-.113l-1.004-.26V7.896h11.648l.397-.323.205-.158c.47-.339.875-.475 1.375-.642zm-12.37 7.034c.702.183 2.144 2.016 2.573 2.58s2.143 3.055 2.947 4.23c1.11.965 3.437 2.969 3.866 3.266.425.294.994.33 1.593-.093a1 1 0 0 1-.073-.067l-3.25-3.456-.048-.059a.72.72 0 0 1 .1-.982.78.78 0 0 1 1.018-.005l.055.053 3.248 3.456q.068.075.112.16c.302.309.525.537.613.622.382.37 1.07.222 1.416 0 .108-.07.234-.18.359-.295a1 1 0 0 1-.075-.062l-3.888-3.749-.052-.056a.72.72 0 0 1 .049-.986.76.76 0 0 1 .401-.203.64.64 0 0 1 .603.119c.306.267 3.036 2.907 4.363 4.193.42.297.69.445 1.072.223.186-.107.537-.369.864-.616l-4.564-4.167-.054-.055a.72.72 0 0 1 .021-.986.76.76 0 0 1 .404-.215c.167-.074.396-.06.597.126l.014.009.06.049 3.037 2.772c.883.794 1.661 1.492 1.88 1.673.502.417 1.273.084 1.557-.204l.05-.057c.215-.278.229-.915-.149-1.36l-.08-.086c-.364-.352-3.64-3.648-5.295-5.315a.5.5 0 0 0-.07-.06l-.081-.045-3.473-1.556c-.689.582-2.158 1.78-2.526 1.929l-.225.084c-.616.21-1.93.488-2.954-.656l-.113-.133c-.949-1.187-.114-2.474.422-2.969L12.12 9.37h-8.1zm15.55-5.564c-1.272-.157-1.866-.31-2.765-.053l-.185.057c-.473.158-.7.24-.975.441l-.123.095-2.195 1.788-1.7 1.395c-.099.083-.208.28-.227.538-.018.258.064.418.133.482.094.084.321.178.655.168.325-.01.61-.117.774-.256.335-.287 1.204-.999 2.026-1.661.799-.644 1.628-1.303 1.844-1.443a.776.776 0 0 1 1.055.205.724.724 0 0 1-.211 1.021l-.015.01-.042.03-.13.098-.27.209 3.126 1.514 4.3 4.17 1.747-1.913 1.55-.06.029-4.305h-2.484l-.19-.12h-.001l-.006-.004-.026-.016-.11-.067a27 27 0 0 0-1.855-1.017c-1.107-.549-2.418-1.092-3.514-1.274z" clip-rule="evenodd"></path></svg>