<svg width="32" height="32" xmlns="http://www.w3.org/2000/svg" aria-hidden="true" viewBox="0 0 32 32">
<path fill-rule="evenodd" clip-rule="evenodd" d="M20.7158 28.2148L8.4258 15.9248L20.7058 3.63484C21.0456 3.23807 21.0227 2.64664 20.6534 2.27727C20.284 1.9079 19.6926 1.88506 19.2958 2.22484L6.2958 15.2248C6.10649 15.4126 6 15.6682 6 15.9348C6 16.2015 6.10649 16.4571 6.2958 16.6448L19.2958 29.6448C19.4836 29.8341 19.7392 29.9406 20.0058 29.9406C20.2724 29.9406 20.528 29.8341 20.7158 29.6448C20.9082 29.4567 21.0167 29.1989 21.0167 28.9298C21.0167 28.6607 20.9082 28.403 20.7158 28.2148Z"></path>
</svg>