<svg width="32" height="32" xmlns="http://www.w3.org/2000/svg" aria-hidden="true" viewBox="0 0 32 32"><path d="M26 4v24H6V4h20m0-2H6a2 2 0 0 0-2 2v24a2 2 0 0 0 2 2h20a2 2 0 0 0 2-2V4a2 2 0 0 0-2-2Z"></path><path d="M22 8v3H10V8h12m1.5-2h-15a.5.5 0 0 0-.5.5v6a.5.5 0 0 0 .5.5h15a.5.5 0 0 0 .5-.5v-6a.5.5 0 0 0-.5-.5Z"></path><path d="M11 16H9a1 1 0 0 0 0 2h2a1 1 0 0 0 0-2Z"></path><path d="M17 16h-2a1 1 0 0 0 0 2h2a1 1 0 0 0 0-2Z"></path><path d="M17 20h-2a1 1 0 0 0 0 2h2a1 1 0 0 0 0-2Z"></path><path d="M23 16h-2a1 1 0 0 0 0 2h2a1 1 0 0 0 0-2Z"></path><path d="M11 20H9a1 1 0 0 0 0 2h2a1 1 0 0 0 0-2Z"></path><path d="M23 20h-2a1 1 0 0 0 0 2h2a1 1 0 0 0 0-2Z"></path><path d="M17 24h-2a1 1 0 0 0 0 2h2a1 1 0 0 0 0-2Z"></path><path d="M11 24H9a1 1 0 0 0 0 2h2a1 1 0 0 0 0-2Z"></path><path d="M23 24h-2a1 1 0 0 0 0 2h2a1 1 0 0 0 0-2Z"></path></svg>