<svg width="32" height="32" xmlns="http://www.w3.org/2000/svg" aria-hidden="true" viewBox="0 0 32 32">
<path d="M25.8995 7.51472C26.29 7.1242 26.29 6.49103 25.8995 6.10051C25.509 5.70999 24.8758 5.70999 24.4853 6.10051L16 14.5858L7.51474 6.10051C7.12421 5.70999 6.49105 5.70999 6.10052 6.10051C5.71 6.49103 5.71 7.1242 6.10052 7.51472L14.5858 16L6.10051 24.4853C5.70999 24.8758 5.70999 25.509 6.10051 25.8995C6.49104 26.29 7.1242 26.29 7.51473 25.8995L16 17.4142L24.4855 25.8997C24.876 26.2902 25.5092 26.2902 25.8997 25.8997C26.2902 25.5092 26.2902 24.876 25.8997 24.4855L17.4142 16L25.8995 7.51472Z"></path>
</svg>