<svg width="32" height="32" xmlns="http://www.w3.org/2000/svg" aria-hidden="true" viewBox="0 0 32 32">
<path fill-rule="evenodd" clip-rule="evenodd" d="M10.2802 14.2699C11.8239 12.7314 14.2665 12.5691 16.0002 13.8899C17.7338 12.5691 20.1765 12.7314 21.7202 14.2699C22.5397 15.0813 23.0009 16.1867 23.0009 17.3399C23.0009 18.4932 22.5397 19.5985 21.7202 20.4099L16.9702 25.1499C16.6934 25.3928 16.3384 25.5277 15.9702 25.5299C15.6535 25.528 15.3468 25.4187 15.1002 25.2199L10.2802 20.4099C9.46063 19.5985 8.99951 18.4932 8.99951 17.3399C8.99951 16.1867 9.46063 15.0813 10.2802 14.2699ZM16.0002 23.2999L20.3102 18.9999C20.7559 18.5631 21.0049 17.9639 21.0002 17.3399C21.0121 16.7223 20.7783 16.1252 20.3502 15.6799C19.4272 14.7687 17.9432 14.7687 17.0202 15.6799L16.0202 16.6799L15.0202 15.6799C14.095 14.7741 12.6154 14.7741 11.6902 15.6799C11.2474 16.1187 10.9989 16.7166 11.0002 17.3399C10.9955 17.9639 11.2445 18.5631 11.6902 18.9999L16.0002 23.2999Z"></path>
<path fill-rule="evenodd" clip-rule="evenodd" d="M27.29 11.4L17.2 1.9C16.4889 1.36667 15.5111 1.36667 14.8 1.9L4.71 11.4C4.25934 11.7804 3.99952 12.3403 4 12.93V28C4 29.1046 4.89543 30 6 30H26C27.1046 30 28 29.1046 28 28V12.93C28.0005 12.3403 27.7407 11.7804 27.29 11.4ZM6 28V12.93L16 3.52L26 12.93V28H6Z"></path>
</svg>